<?xml version="1.0" encoding="utf-8"?>
<!-- Generator: Adobe Illustrator 15.0.2, SVG Export Plug-In . SVG Version: 6.00 Build 0)  -->
<!DOCTYPE svg PUBLIC "-//W3C//DTD SVG 1.1//EN" "http://www.w3.org/Graphics/SVG/1.1/DTD/svg11.dtd">
<svg version="1.1" id="Layer_1" xmlns="http://www.w3.org/2000/svg" xmlns:xlink="http://www.w3.org/1999/xlink" x="0px" y="0px"
	 width="3232px" height="1723.5px" viewBox="-1615.5 -261.25 3232 1723.5" enable-background="new -1615.5 -261.25 3232 1723.5"
	 xml:space="preserve">
<g>
	<g>
		<g id="uqVMJ5.tif">
			<path fill-rule="evenodd" clip-rule="evenodd" fill-opacity="0.66" d="M478.461,908.157c3.094,3.169,0.615,10.78-5.239,11.498
				C473.494,914.913,478.293,912.961,478.461,908.157z M199.954,1006.307c0.07-5.479,1.811-9.929,4.725-13.655
				c-1.293-3.878-4.078-5.333-5.542-8.933C170.693,982.007,181.485,1020.012,199.954,1006.307z M454.634,946.858
				c-2.702,0.176-1.875,2.526-5.136,2.36c-0.216-0.644-0.462-1.238-1.332-0.822C448.844,953.628,455.053,950.456,454.634,946.858z
				 M378.757,977.438c4.298-2.262,4.35-7.137,3.904-12.32C377.364,966.463,376.479,974.385,378.757,977.438z M175.205,1031.558
				c-5.908,7.92-15.25,7.043-24.59,11.546c-12.379,5.967-8.634,21.254-16.229,32.337c6.86,11.882,4.77,29.817,19.552,29.521
				c17.214-18.273,31.037-42.375,26.349-71.195C178.015,1033.97,177.479,1031.352,175.205,1031.558z M510.328,965.503
				c2.309,1.437,6.948-0.392,7.289-2.873C515.512,961.319,511.772,963.701,510.328,965.503z M28.329,1089.28
				c-1.138,8.305,6.18,13.17,7.54,22.125c8.943,1.311,21.691,6.844,28.235-1.021C63.315,1091.562,43.609,1084.684,28.329,1089.28z
				 M-195.605,1163.056c3.482-1.672,2.723,3.551,5.338,3.286c3.244-1.821,5.803-2.074,8.933-5.542
				c-2.351-7.721-8.161-6.898-13.911-5.803C-195.593,1157.542-197.16,1159.337-195.605,1163.056z M-172.197,1160.904
				c-1.095-6.404-4.097-1.939-7.493-2.773C-178.333,1160.905-175.725,1161.65-172.197,1160.904z M5.579,1127.724
				c1.531-7.311-4.279-12.024-12.266-8.472C-10.06,1128.171-0.766,1133.168,5.579,1127.724z M12.714,1138.557
				c1.594,6.378,9.938,1.792,12.011,7.395c-0.677-2.869,2.344-3.462,3.286-5.337c-2.587-0.284-3.595-3.13-5.594-4.366
				c-3.508,0.249-4.112,4.094-4.827-1.13C14.157,1137.069,14.243,1135.435,12.714,1138.557z M142.946,1149.721
				c-13.027-2.57-23.701-10.682-38.911-5.552c-8.171-8.138-22.954-10.97-29.056,2.357c5.138,9.093,13.931,12.248,26.229,9.706
				c3.978,6.546,14.567,9.521,11.342,18.944c3.858-1.282,4.976,1.883,6.674,4.109c10.456-6.252,16.08-5.354,29.107-6.925
				c-2.599-3.079-2.209-6.697,2.773-7.495c-0.067-3.875-4.705-0.327-4.517-4.621c2.352-2.715,3.089-3.142,6.213-2.615
				c-2.26-4.459,2.804-4.408,1.438-8.316C149.599,1148.962,147.626,1146.577,142.946,1149.721z M-138.377,1212.091
				c4.578-0.96,4.342,5.899,9.085,4.673c-0.177-2.038,2.443-6.965-0.717-7.803C-131.692,1213.937-138.178,1205.498-138.377,1212.091
				z M381.299,1107.829c2.439-0.933,3.951-3.172,6.467-1.538c0.126-3.692-3.904-0.634-4.259-3.545
				c0.644-0.218,1.239-0.465,0.823-1.334C380.158,1101.605,382.538,1105.831,381.299,1107.829z M125.175,1199.513
				c-0.44-0.779-0.537-2.12-1.591-1.898c-0.702,4.622,3.33,1.563,4.259,3.541c-3.15,0.515-5.411,1.579-5.954,3.693
				c3.018,2.152,1.353,11.334,6.259,16.738c12.06,2.411,26.856,8.085,28.229,22.899c9.999,0.853,13.456-7.047,19.405-4.615
				c-2.223-6.122,1.592-6.103,4.365-5.595c0.047-3.038,0.391-5.894,1.441-8.315c3.61,1.233,10.502,3.531,9.444-3.384
				c-3.627-2.919-4.231,5.222-6.724,0.459c1.244-4.686,5.022-5.709,8.934-5.544c-0.183,1.729-0.948,3.098-1.131,4.826
				c7.324-0.351,2.574-6.712,3.596-8.829c-3.088,0.033-5.558-0.937-7.494-2.774c0.395-2.209,0.357-4.686,1.952-6.158
				c-8.321-14.848-23.903-10.685-36.597-19.77C148.1,1192.494,131.574,1194.205,125.175,1199.513z M239.653,1177.974
				c-3.11,1.566-3.613-1.106-6.724,0.46C233.954,1183.838,241.067,1183.846,239.653,1177.974z M193.853,1234.434
				c2.893-0.367,4.545-1.497,3.543-4.262c-1.497,0.308-2.247,1.071-2.979,1.848c-0.094-1.827-2.147-2.561-2.411-0.563
				C193.307,1231.337,193.581,1232.881,193.853,1234.434z M12.528,1295.793c1.616-3.061-0.854-8.552-4.206-8.109
				C6.241,1291.379,7.788,1295.945,12.528,1295.793z M626.035,1236.417c2.545,0.348,4.341,1.913,8.058,0.357
				c2.036-4.285,10.316-9.572,4.213-15.81c0.118,1.747-2.187,1.311-3.232,0.77C634.823,1228.329,626.134,1229.728,626.035,1236.417z
				 M-62.073,1097.116c1.437-0.341,2.874-0.684,4.313-1.025c-0.604-6.495-9.551-5.722-7.39-11.91
				c-8.653-1.889-17.75-3.059-23.818-9.143c-8.423-0.844-7.356,7.409-11.602,3.898c1.592,3.128-2.466,2.775-0.875,5.904
				c7.482,3.702,6.926,9.418,13.755,19.509c3.489,0.809,7.299,1.097,9.906,3.34c-1.409,0.971-2.231,2.306-2.465,4.003
				c8.67-0.847,14.07-7.031,21.87-8.619c-0.134-1.31-0.913-3.017,0.308-3.492c0.779-0.441,2.121-0.535,1.9-1.591
				C-59.458,1098.191-61.432,1102.858-62.073,1097.116z M477.934,977.765c-3.146-0.273,1.655-3.144,2.465-4.003
				c0.367,2.892,1.498,4.544,4.26,3.544c-0.878-2.995,1.901-3.739,4.621-4.516c-1.436-1.658-1.649-5.293-3.695-5.957
				c-4.616,4.196-16.422-0.972-19.457,9.185C471.654,973.076,475.814,980.135,477.934,977.765z M529.784,956.317
				c-2.139,3.953-3.797,2.514-6.52,6.107c1.656-0.201,3.888-1.331,4.567,0.054c-0.642,0.217-1.237,0.463-0.819,1.335
				c2.776-0.013,7.299-6.035,4.876-3.439C528.355,962.233,529.211,957.295,529.784,956.317z M-130.718,1153.314
				c-1.474,0.398-2.487,0.056-3.49-0.309c0.777,2.665,2.859,2.885-0.052,4.567c-4.05-1.508-1.984,0.611-2.979,1.849
				c-1.459-0.119-2.534-0.866-2.924-2.722c1.788-1.118,6.25-5.256,3.029-6.416c0.004,1.332-7.091,1.672-8.06-0.361
				c0.89,4.378-5.388,8.254,0.152,10.216c0.12-1.46,0.866-2.533,2.723-2.926c2.211,3.011,0.439,3.146,1.793,7.547
				c3.387-2.516,8.612-3.9,9.499-7.955c7.853,10.162,28.775-0.901,38.09,6.886c-0.345-4.979,2.103-5.495,5.955-3.695
				c3.616-5.628,12.871-6.274,22.125-7.54c-0.171-0.72-0.341-1.438-0.513-2.158c0.643-0.217,1.239-0.463,0.822-1.334
				c-5.262,0.997-0.506-3.491,0.052-4.569c-3.433,2.589-1.522-3.507-4.003-2.465c0.366,3.061-2.894,2.662-4.313,1.027
				c-0.03-2.165,2.617-2.684,0.875-5.903c-7.957-6.659-10.877-15.124-17.757-21.973c-3.876,5.035-5.584,6.187-13.811,8.979
				c-1.004,3.982-3.142,7.269-4.162,11.241c-2.135-0.515-3.766-1.854-6.158-1.95c-7.482,4.347-16.767,10.484-18.74,16.988
				C-131.266,1150.217-130.988,1151.762-130.718,1153.314z M499.485,1020.479c-1.935-2.34-6.311-0.708-7.75-3.85
				c1.448-0.643,0.667-2.658,1.386-3.748c-2.949,0.311-4.311-1.964-5.594-4.365c-2.096,0.245-2.088,1.781-4.057,2.104
				c-14.72-10.956-51.627-4.577-54.777,18.727c-6.441,3.702-9.405,9.547-9.602,17.093c6.916-0.338,4.557,10.074,8.467,11.653
				c5.036-0.107,13.328-3.833,16.429-2.77c-1.038-2.284-3.868-5.254-0.462-6.723c9.043,2.077,11.953-21.053,23.001-13.445
				c2.55-4.354,5.514-3.844,10.012-5.799c-1.113-2.834-3.466-0.573-5.595-4.365c8.555,0.655,17.268-13.683,24.743-1.33
				c-5.702,0.729-4.508,10.514-11.706,13.036c2.062,2.303-1.234,5.453,3.129,8.368c-2.084,1.954-3.207,6.268-6.212,2.617
				c0.037,2.171,0.715,4.734-2.21,5.082c2.168,5.47,0.55,11.694,0.615,16.94c5.482,1.555,7.9,3.024,9.802,12.478
				c4.628-1.326,9.377,4.158,13.345,8.215c2.703-0.178,1.875-2.526,5.134-2.36c0.381,1.298-1.145,1.903,0.513,2.156
				c5.006,0.768,15.855,5.422,22.537,3.752c-0.057,1.638-0.862,2.127,0.768,3.232c13.135,0.021,28.287-5.279,38.758-4.662
				c4.505-7.69,20.077-7.951,29.982-12.828c4.821-4.701,1.78-14.24,1.596-22.022c-3.432-0.903-4.236-6.074-6.621-8.678
				c4.461-0.64-3.96-7.164-1.999-13.192c-2.816-0.906-6.031-1.162-6.107-6.521c-8.381-0.158-18.689,1.521-21.87,8.62
				c1.342,11.089-12.309,25.44-26.543,17.704c0.378,2.992,5.969,5.091,3.13,8.37c-5.89,1.595-7.594-3.609-10.677-6.574
				c4.555-20.086-19.701-36.767-34.028-32.91C495.409,1019.97,499.594,1022.414,499.485,1020.479z M-129.04,1241.763
				c1.856-6.491,4.194-15.14-0.304-20.43c-1.796,0.427-3.594,0.853-5.39,1.282c-0.402,3.739-1.109,7.29-6.008,8.263
				c-1.173-7.994-2.758-9.458-3.334-14.015c-3.135,4.541-4.867,9.371-8.729,11.189c-1.116-1.676-3.68-1-5.082-2.209
				c-2.055-2.904,7.463-3.236,3.542-4.26c-4.158,0.774-7.457,0.155-8.829-3.597c1.897-0.365,3.295-1.035,4.057-2.102
				c0.085-3.128-2.659-1.66-3.182-3.8c-3.513-0.016-0.43,4.028-4.879,3.437c0.604-7.544-4.397-16.076-3.742-25.306
				c-2.253-0.554-2.834,4.084-4.313,1.025c-1.729-4.995,1.061-1.513,2.465-4.003c-0.65-3.427-3.645-3.046-6.416-3.031
				c-0.503,3.806,3.686-0.005,3.182,3.801c-2.827,3.076-11.585,4.562-9.498,7.952c-2.409-0.57-2.837-4.36-6.416-3.028
				c-6.156,4.912-6.954,7.812-15.454,11.649c-0.625-1.973-1.566-3.432-3.182-3.8c-0.636,5.444,4.845,6.508,0.409,11.296
				c2.585,2.271,10.16-3.552,11.55,0.667c-4.303-1.108-7.937,1.219-9.189,4.466c1.694,0.73,2.811,2.411,5.081,2.208
				c3.161-3.135-1.48-3.93-0.203-5.647c2.239,1.843,4.559,3.556,6.106,6.521c-3.499,0.3-2.394,3.435-3.286,5.339
				c3.001-0.891,3.427,2.403,5.338,3.287c-3.761,1.701-2.657,6.945-2.517,8.572c-1.658,0.201-3.888,1.33-4.57-0.053
				c-0.727-1.98,0.649-2.668,0.053-4.569c-6.243,1.855-0.917,5.109-4.93,8.009c0.635,3.452,3.723,2.919,3.951,7.031
				c-2.376-1.543-3.271,1.074-3.799,3.184c1.017,1.337,4.188-0.825,4.826,1.129c2.302,10.326,1.238,31.19-8.886,24.897
				c0.424,3.942-2.452,5.851-2.261,9.648c3.055,3.138,6.933,9.85,7.337,16.479c1.747,1.046,4.303,0.439,5.391-1.281
				c4.12,6.074,10.258,0.378,14.732,4.467c2.786,6.438,7.447,9.827,10.572,15.711c4.33-3.747,9.26,0.586,8.007,4.933
				c7.587,7.103,19.657,6.93,28.077,12.685c21.154,1.284,34.885,0.383,59.19-4.971c7.82-4.439,27.562-13.202,37.527-14.621
				c4.496-0.64,7.541,1.911,9.394,1.18c6.276-2.472,6.637-8.293,9.294-13.601c2.163-0.025,3.262,1.678,5.903,0.873
				c9.203-12.827,9.905-28.926,28.343-34.078c-1.72-3.514-0.624-5.293,3.287-5.339c-2.162-10.842-0.5-19.322,5.395-25.204
				c-2.735-9.337-1.929-13.185-8.363-20.793c0.06,1.265-0.797,1.963-1.644,2.671c-3.274-9.583-4.429-19.157-0.764-27.156
				c-5.882-2.901-10.451-7.938-14.628-13.608c-5.85,0.411-9.57,5.006-9.958,1.233c-1.5,1.221-0.799,3.8-3.544,4.26
				c0.945-4.93-1.582-3.009-3.182-3.801c2.07-3.538-2.002-5.531-2.309-9.701c-15.222,4.665-20.29-22.821-31.154-25.622
				c0.886,2.385,0.705,4.113-1.131,4.825c-0.458-2.742-2.458-2.981-4.259-3.543c-0.397,3.127-3.506,4.588-5.187,6.93
				c-1.246-1.964-6.262,2.199-6.159-1.953c-3.131,1.445-1.917,5.569-7.855,5.287c-0.104,7.207,1.079,9.725-0.722,16.117
				c-4.857,0.997-4.45,5.233-8.676,6.62c3.076,4.64,0.903,6.742,1.742,12.116c7.691,0.487,7.244,16.67,2.205,18.84
				c-2.469-1.439,0.223-2.949-1.54-6.471c-3.696,2.188,0.022,5.44-4.364,5.595c0.959,6.699-0.304,6.971-4.161,11.243
				c-1.141-4.333-4.973-5.714-2.563-10.781c-4.833-2.34-12.209,3.882-15.145,8.159c3.026-2.417,7.32-1.976,10.215-0.152
				c-5.226,8.011-3.448,14.685-13.658,19.198c0.489-2.125,2.814-4.199-1.025-4.312c0.916,4.513-0.659,0.386-2.156,0.513
				c-0.288,3.503-1.121,6.671-4.93,8.009c0.667-4.09,0.332-7.174,1.438-8.319C-125.107,1240.021-126.945,1244.715-129.04,1241.763z
				 M198.003,1271.033c-0.354-2.909-4.384,0.147-4.259-3.541c1.716-4.338,4-4.76,0.926-10.474c-4.149,1.435-9.268,2.272-7.343,7.442
				c0.782,1.762,3.1-1.784,4.826,1.133c-3.117,0.229,2.244,5.673-0.874,5.901c-8.756-2.784-13.111,11.291-19.97,7.029
				c5.137,7.483-8.19,12.847-8.525,16.835c-6.266-2.749-9.432,4.095-15.146,8.161c-4.5-3.658-5.51-8.684-3.333-14.015
				c-5.471,0.414-6.925-5.691-12.577-4.983c5.355-4.686-4.002-4.741-4.464-9.188c8.574-6.377,10.641-16.76,20.949-22.069
				c0.469,1.229,0.543,3.104,1.847,2.978c-0.922-2.406,2.829-1.939,2.466-4.004c-5.074,1.638-1.362-1.652-5.082-2.208
				c3.068-0.566,2.481-3.381,1.951-6.161c-11.503,1.298-22.831-13.21-31.416-2.776c12.105,16.261-10.333,34.355,4.869,44.404
				c-1.462,0.939-2.339,2.242-3.8,3.184c1.914,16.733,27.762,7.45,25.561,21.255c4.394,1.33,15.515,5.874,19.25,9.09
				c4.414,3.805,17.707,6.268,25.408,11.042c5.129,3.181,9.447,6.818,13.601,9.294c6.522,3.889,9.165,1.114,17.452,1.543
				c-0.033,0,4.29,2.617,5.082,2.211c3.939-2.033,3.754-10.491,7.14-13.091c12.215-2.104,13.812,4.603,19.762,11.245
				c4.124-2.056,4.845-1.668,8.059,0.36c1.031,3.09-1.649,3.895-0.617,6.983c9.745,6.59,18.639,14.563,29.616,19.152
				c2.274,12.271,25.479,20.707,33.106,19.463c5.988-0.979,17.802-12.362,26.801-16.627c7.907-3.749,9.631-7.194,11.963-11.959
				c4.74-1.99,6.761-5.652,9.241-9.034c-1.287-4.186,5.739-11.174,10.115-14.937c-1.398-5.739,4.737-10.809,10.32-9.29
				c-1.931-8.854,7.94-10.446,4.263-20.376c9.29-5.019,9.417-15.676,20.384-19.658c-4.107-8.356,1.506-10.728,5.804-13.91
				c4.062-16.475,19.019-29.203,16.128-47.122c-9.903-11.311-4.125-30.946-14.57-42.098c-1.025-7.612,3.546-22.578-4.769-29.618
				c2.255-2.601,2.858-6.217,3.339-9.907c6.157-4.618,9.292,7.527,15.5,7.701c6.143-3.333,11.861-11.197,19.715-8.105
				c-2.202,2.941,4.344,4.041,1.796,7.546c9.954,0.609,10.507-1.079,17.813-6.515c-3.39-3.729,0.228-6.708,0.927-10.474
				c-3.986,0.032-2.316-5.017-0.719-7.804c-4.007,1.529-2.253-6.304-5.851-5.441c1.285-0.434,2.477-0.93,1.644-2.67
				c-0.47-3.447-2.462,3.482-3.49-0.308c-0.826-2.043,0.946-2.486,1.387-3.748c-8.228-10.179-16.786-14.71-22.273-26.594
				c-3.076,0.537-6.383,0.321-8.83-3.596c-16.96,2.504-21.66,20.156-31.011,32.437c-2.59-1.515-1.274-3.867-1.539-6.47
				c-10.007-7.535-19.489,1.254-20.022,11.6c-6.561-3.357-12.378-0.885-17.146-5.033c0.89-3.137,2.662-5.725,3.596-8.83
				c-3.584,2.791-1.858-0.23-5.647,0.204c-2.563,0.262-0.457,3.398-2.463,4.004c-4.8-2.478-9.111,0.12-11.243-4.16
				c1.661-4.498,5.735-7.513,7.395-12.012c-5.475-0.075-8.513-4.107-12.011-7.395c-14.987,3.652-31.751,12.777-41.426,3.023
				c-0.426,2.481,0.32,6.382,1.743,12.112c-2.073,1.793-3.743,3.829-8.112,4.21c-3.13-6.97-10.312,1.114-14.733-4.471
				c-2.545,0.581-2.733,2.613-6.212,2.617c1.638,3.769,0.64,5.915-0.36,8.059c1.855,1.97,4.803,2.168,5.85,5.443
				c-0.052,1.639-0.859,2.125,0.771,3.234c-9.259,0.739-9.102,15.861-4.008,21.457c3.538-0.89,4.934-3.098,9.445-3.386
				c1.384,3.011,6.119,3.441,2.617,6.211c1.908,2.35,3.549-3.177,5.648-0.204c0.726,1.981-0.65,2.668-0.053,4.569
				c7.976-3.333,4.224,4.896,8.265,6.007c2.543-0.58,2.731-2.611,6.21-2.615c-0.125,3.689,3.905,0.632,4.261,3.542
				c1.708,4.119,0.015,6.145-1.439,8.316c3.936-0.011,4.073-3.096,6.47-1.54c-1.54,2.427-1.168,6.031-1.184,9.395
				c5.133-0.362,7.5,3.76,12.319,3.904c-3.56,3.143-11.371,4.803-15.967,9.494c-1.864-7.321-14.038-8.969-20.327-8.836
				c1.417-0.317,2.083,2.665,0.769,3.236c-1.924-4.846-9.466-0.569-10.677-6.572c-9.229,3.036-13.314-2.287-22.587,0.814
				c1.485,2.755-1.626,2.681-1.13,4.828c1.818,0.533,2.964,2.16,3.438,4.877c-4.342,1.749-10.245,1.546-6.159-1.952
				c-7.117-0.346-2.455,7.783-3.083,10.983c-2.791-2.353-6.94-0.896-5.954,3.696c1.096,1.706,5.094-1.3,5.903,0.873
				c0.206,2.274-2.414,2.808-2.21,5.082c2.181,0.941,3.191,3.787,5.595,4.363c-3.655,2.564-2.834,2.552-8.368,3.131
				c1.691,4.414-3.364,4.676-2.517,8.572c1.697,0.235,3.032,1.056,4.004,2.465c-1.462,0.938-2.339,2.241-3.8,3.183
				c3.594,3.92,1.621,3.135,2.051,8.623c2.815,1.815,2.95-1.269,6.469-1.538c2.084,4.536,8.852,3.736,5.542,8.933
				c3.237-1.77,2.901,2.265,5.082,2.211c-0.132-1.31-0.914-3.018,0.31-3.493c4.746,0.83,6.697,0.298,4.772,5.699
				c18.352-4.414,24.584,8.296,29.308,22.646c-1.392,0.267-1.822-1.028-3.492-0.31c3.017,6.498,8.318-0.411,13.708,0.155
				c-3.329,3.675,0.878,10.397-5.752,9.344c0.569,4.557,4.823,3.125,6.107,6.519c0.756,2.305-0.065,3.641-2.463,4.006
				c-5.065-1.881-9.196-3.1-11.86,2.82c-1.962-1.295-4.743-1.265-8.06-0.36c0.727,1.979-0.648,2.665-0.052,4.569
				c2.515,1.394,6.94-0.312,7.751,3.851c-5.787,3.688-7.788,9.151-12.989,7.646c-2.908,3.688,0.841,4.117,2.874,7.29
				c-2.565,0.262-0.457,3.399-2.465,4.004c-2.247,0.949-4.284,1.167-5.904-0.874c-6.042-7.607-0.306-15.354,0.21-18.273
				c0.736-4.179-1.564-7.451-3.078-12.938c-1.297-4.696,1.334-9.802-10.112-8.984c-1.898-3-3.737-10.488-6.823-14.324
				c-0.713,1.709-2.364,2.838-3.544,4.26c-2.372-5.112-9.986-1.719-11.188-8.728c-8.793,3.031-16.513-1.183-15.66,6.001
				c-3.466-2.612-13.153,4.503-16.375-1.8c2.38,4.143-4.085,4.765-7.033,3.952c-0.76-1.827,4.282-4.546,1.13-4.825
				C207.641,1265.314,200.912,1266.997,198.003,1271.033z M356.284,1179.845c-2.6,4.66,3.368,4.468,4.208,8.11
				c-1.278,1.054-1.461,2.782-1.131,4.825c-5.085-2.16-6.307,5.552-10.526,3.644c-1.057-2.49,1.414-2.813-0.203-5.648
				c-3.208,4.287-2.947,0.578-7.802,0.719c1.63-2.516-0.608-4.026-1.54-6.469C344.503,1180.589,350.534,1180.898,356.284,1179.845z
				 M394.938,1184.317c2.11,3.755-1.946,3.711-0.618,6.983c2.836,0.871,5.863,1.437,6.108,6.519
				c-4.111,0.505-9.091-3.203-8.265-6.006c-2.103-2.686-1.42,3.925-4.876,3.438c-2.61-3.231-6.812-3.882-9.599-6.829
				c-2.104-5.896,6.452-5.229,6.829-9.598c4.047-2.089,4.015,2.449,8.061,0.36C392.033,1185.049,390.907,1182.008,394.938,1184.317z
				 M351.245,1220.912c9.126-1.371,14.992,2.554,17.605,11.758c-3.434,1.262-2.263,5.356-3.851,7.75
				c-2.228-0.868-3.92-2.603-6.417-3.028c-3.164,5.305,0.082,8.923-3.646,13.397c-2.004-9.699-18.924-7.731-13.753-19.511
				C348.818,1233.243,350.647,1226.085,351.245,1220.912z M228.498,1260.364c-1.441-6.509,4.511-0.391,5.956-3.696
				C233.134,1250.03,222.2,1259.996,228.498,1260.364z M617.771,1230.408c-2.611,0.259-4.451-0.741-7.802,0.716
				c-1.203,8.771-10.186,12.748-12.067,21.097c4.637,8.153,13.414,0.597,17.762-1.946c2.617-0.125,4.019,4.071,5.903,0.873
				c-6.181-4.757-1.068-11.012,3.39-14.475C619.052,1240.27,617.998,1236.731,617.771,1230.408z"/>
			<g>
				<path fill-rule="evenodd" clip-rule="evenodd" fill-opacity="0.27" d="M-87.338,1150.227
					c-3.869-42.359-40.717-150.721-167.411-178.756c-126.695-28.035-236.967,23.576-236.967,23.576s74.457,151.742,179.338,187.729
					C-207.498,1218.765-83.468,1192.585-87.338,1150.227z"/>
				<path fill-rule="evenodd" clip-rule="evenodd" fill-opacity="0.27" d="M-100.492,1221.346
					c13.904-38.97,25.686-149.684-74.678-226.23c-100.364-76.547-218.798-76.078-218.798-76.078s3.676,164.378,81.535,239.025
					C-234.576,1232.708-114.398,1260.313-100.492,1221.346z"/>
				<path fill-rule="evenodd" clip-rule="evenodd" fill-opacity="0.27" d="M-114.193,984.902
					c205.627,0,342.712,123.104,615.029,123.104c272.318,0,439.043-124.571,648.376-124.571
					c209.331,0,316.776,73.277,309.366,118.71c-7.41,45.431,44.459,187.383,3.704,184.454c-40.753-2.933-978.119,4.86-978.119,4.86
					l-909.577,6.783l-301.956,47.532c0,0-283.786-82.822-133.733-82.822C-711.05,1262.953-319.822,984.902-114.193,984.902z"/>
				<path fill-rule="evenodd" clip-rule="evenodd" fill-opacity="0.27" d="M396.054,963.855
					C64.104,963.128,53.342,1133.17-218.976,1133.17c-272.318,0-439.043-173.82-648.375-173.82s-406.964,237.619-399.554,301.015
					c7.411,63.391,54.989,9.813,95.745,5.725c40.755-4.09,972.561-6.136,972.561-6.136l904.02,32.721l274.171-16.36
					c0,0,146.347-116.561-3.707-116.561C825.834,1159.753,730.112,964.588,396.054,963.855z"/>
				<path fill-rule="evenodd" clip-rule="evenodd" fill-opacity="0.27" d="M452.508,593.949c-4.344-0.228-8.049,3.106-8.277,7.447
					c-0.166,3.155,1.551,5.971,4.164,7.365l-12.767,355.869l6.475,0.534l12.771-355.988c2.834-1.069,4.914-3.735,5.084-6.952
					C460.186,597.884,456.85,594.178,452.508,593.949z"/>
				<path fill-rule="evenodd" clip-rule="evenodd" fill-opacity="0.27" d="M870.097,1112.631
					c22.379,1.242,39.514,20.394,38.271,42.772c-1.242,22.38-20.393,39.518-42.773,38.273s-39.517-20.394-38.272-42.775
					C828.563,1128.522,847.714,1111.387,870.097,1112.631z"/>
				<path fill-rule="evenodd" clip-rule="evenodd" fill-opacity="0.27" d="M-640.691,1146.855
					c34.532,1.845,61.031,31.334,59.185,65.864c-1.843,34.531-31.332,61.03-65.864,59.185
					c-34.531-1.843-61.031-31.332-59.184-65.863C-704.71,1171.509-675.222,1145.011-640.691,1146.855z"/>
			</g>
		</g>
		<g>
			<g>
				<g>
					<rect x="527.102" y="1049.122" fill="#FFFFFF" width="1.072" height="4.295"/>
					<path fill="#FFFFFF" d="M527.639,1047.059c-0.234-0.002-0.406,0.071-0.516,0.187s-0.15,0.265-0.15,0.406
						c0,0.008,0,0.04,0,0.049c0,0.142,0.041,0.291,0.15,0.406c0.109,0.116,0.281,0.188,0.516,0.188c0.001,0,0.002,0,0.003,0
						c0.231,0,0.402-0.072,0.511-0.188c0.109-0.115,0.15-0.265,0.149-0.406c0-0.009,0-0.041,0-0.049
						c0.001-0.142-0.04-0.291-0.149-0.406C528.046,1047.13,527.87,1047.057,527.639,1047.059z"/>
					<path fill="#FFFFFF" d="M519.717,1053.437c0.178,0.061,0.371,0.086,0.568,0.086c0.435,0,0.899-0.126,1.33-0.28l0.138-0.047
						v0.14l-0.001,0.082h0.95v-4.295h-0.949v2.841l-0.001,0.004c-0.007,0.104-0.01,0.195-0.015,0.275
						c-0.007,0.074-0.014,0.146-0.063,0.209c-0.044,0.064-0.12,0.108-0.232,0.138c-0.116,0.03-0.276,0.049-0.505,0.049
						c-0.006,0-0.013,0-0.017,0c-0.013,0-0.026,0-0.039,0c-0.191,0-0.336-0.011-0.445-0.031c-0.105-0.021-0.183-0.049-0.238-0.105
						c-0.058-0.055-0.079-0.126-0.094-0.21c-0.016-0.086-0.02-0.191-0.02-0.326c0-0.022,0-2.843,0-2.843h-1.004v3.103
						c0,0.36,0.02,0.615,0.11,0.806C519.279,1053.218,519.44,1053.344,519.717,1053.437z"/>
					<path fill="#FFFFFF" d="M511.313,1053.437c0.181,0.061,0.372,0.086,0.569,0.086c0.435,0,0.899-0.126,1.331-0.28l0.137-0.05
						l-0.001,0.143v0.082h0.951v-4.295h-0.951v2.841l-0.002,0.004c-0.005,0.104-0.006,0.195-0.013,0.275
						c-0.007,0.074-0.015,0.146-0.063,0.209c-0.045,0.064-0.121,0.108-0.233,0.138c-0.116,0.03-0.275,0.048-0.505,0.048
						c-0.005,0-0.012,0-0.016,0c-0.013,0-0.026,0-0.039,0c-0.194,0-0.336-0.01-0.445-0.03c-0.106-0.021-0.185-0.049-0.241-0.109
						c-0.056-0.054-0.076-0.123-0.092-0.206c-0.014-0.086-0.019-0.191-0.019-0.327c0-0.022,0-0.044,0.001-0.067v-2.774h-1.005v3.103
						c0,0.36,0.021,0.614,0.11,0.806C510.877,1053.218,511.035,1053.344,511.313,1053.437z"/>
					<path fill="#FFFFFF" d="M515.893,1053.021c0.118,0.187,0.295,0.31,0.528,0.415c0.142,0.064,0.319,0.091,0.517,0.091
						c0.434,0,0.955-0.132,1.391-0.288l-0.179-0.781c-0.122,0.052-0.369,0.175-0.648,0.179l0,0h-0.012h-0.001l0,0
						c-0.008,0-0.014,0-0.021,0c-0.156,0-0.272-0.009-0.363-0.03c-0.091-0.021-0.162-0.053-0.209-0.113l0,0
						c-0.095-0.114-0.103-0.275-0.109-0.556c0-0.013,0-2.003,0-2.003h1.375v-0.827h-1.375v-1.095l-1.071,0.075v1.02h-0.637v0.827
						h0.637v2.29C515.715,1052.583,515.776,1052.835,515.893,1053.021z"/>
					<path fill="#FFFFFF" d="M525.104,1050.152c0.164-0.083,0.354-0.108,0.469-0.117c0.059-0.003,0.115-0.004,0.167-0.004
						c0.003,0,0.006,0,0.008,0c0.221,0.001,0.389,0.026,0.49,0.064l0.175-1.049c-0.086-0.03-0.179-0.044-0.276-0.044
						c-0.407,0.003-0.875,0.237-1.16,0.526l-0.171,0.174v-0.581h-1.073v4.295h1.073c0-0.142,0-2.555,0-2.809
						C524.803,1050.381,524.943,1050.232,525.104,1050.152z"/>
					<path fill="#FFFFFF" d="M532.507,1051.764c0.021,0.467,0.16,0.979,0.504,1.334c0.333,0.345,0.846,0.479,1.373,0.479
						c0.659,0,1.339-0.209,1.722-0.471l-0.143-0.678c-0.236,0.123-0.502,0.186-0.763,0.229c-0.189,0.031-0.414,0.063-0.632,0.067
						l-0.002,0.001h-0.04c-0.003,0-0.005,0-0.008,0c-0.145-0.001-0.288-0.015-0.416-0.053c-0.223-0.066-0.358-0.207-0.435-0.376
						c-0.064-0.149-0.09-0.322-0.096-0.504l-0.003-0.101h2.598l0.013-0.067c0.037-0.235,0.062-0.481,0.062-0.725
						c0-0.001,0-0.005,0-0.01c-0.002-0.635-0.183-1.248-0.826-1.569c-0.292-0.146-0.658-0.225-1.029-0.225l0,0
						c-0.698,0-1.401,0.278-1.644,0.893c-0.185,0.469-0.244,0.891-0.245,1.393v0.001v0.011
						C532.497,1051.512,532.501,1051.635,532.507,1051.764z M533.592,1050.912c0.013-0.245,0.047-0.498,0.15-0.702
						c0.109-0.222,0.314-0.388,0.657-0.385c0.361-0.003,0.572,0.163,0.678,0.389c0.101,0.205,0.122,0.464,0.127,0.716l0.001,0.099
						l-1.619-0.015L533.592,1050.912z"/>
					<path fill="#FFFFFF" d="M530.982,1049.1c-0.719,0.001-1.412,0.226-1.738,0.875c-0.173,0.346-0.234,0.9-0.234,1.457
						c0,0.486,0.066,0.967,0.196,1.283c0.25,0.629,0.854,0.846,1.517,0.85c0.001,0,0.005,0,0.01,0c0.498,0,1.024-0.121,1.457-0.276
						l-0.209-0.698c-0.221,0.04-0.521,0.102-0.811,0.11h-0.001h-0.072c-0.173,0-0.336-0.02-0.478-0.075
						c-0.142-0.053-0.263-0.149-0.33-0.29c-0.145-0.292-0.185-0.555-0.184-0.909c0-0.009-0.001-0.016,0-0.021
						c0.001-0.325,0.003-0.646,0.123-0.957c0.079-0.203,0.219-0.342,0.386-0.42c0.172-0.08,0.364-0.105,0.569-0.108l0,0h0.001
						c0.194,0,0.391,0.025,0.573,0.058l0.203-0.756c-0.306-0.074-0.641-0.121-0.974-0.121
						C530.986,1049.1,530.985,1049.1,530.982,1049.1z"/>
					<polygon fill="#FFFFFF" points="507.502,1048.384 509.966,1048.384 509.966,1047.535 506.431,1047.533 506.431,1053.417 
						506.438,1053.417 507.502,1053.417 507.502,1050.84 509.612,1050.84 509.612,1049.99 507.502,1049.99 507.502,1049.988 					
						"/>
				</g>
				<path fill="#FFFFFF" d="M516.204,1045.67c2.184,0.607,5.587,0.754,6.337-1.406c0.581-1.672-0.687-2.805-2.05-3.591
					c-1.71-0.985-3.571-1.788-4.862-3.309c-2.086-2.454-2.659-5.369-2.332-8.355c0,0,4.148-0.251,7.077,2.837
					c2.245,2.365,3.09,4.491,3.264,8.08c0.387-1.82,1.161-3.822,2.716-4.916c3.323-2.334,6.433-0.721,6.433-0.721
					c0.073,1.995-0.656,3.787-2.386,4.928c-1.819,1.2-4.799,1.501-6.186,3.295c-0.586,0.761-0.619,1.968,0.085,2.672
					c0.871,0.871,2.298,0.452,3.32,0.101c2.904-0.996,5.538-3.3,7.279-5.691c1.91-2.625,3.161-6.396,3.161-9.847
					c0-9.139-7.688-16.548-17.168-16.548c-9.481,0-17.168,7.409-17.168,16.548c0,3.787,1.322,7.267,3.543,10.05
					C509.488,1042.58,512.608,1044.667,516.204,1045.67"/>
			</g>
			
				<rect id="slide1" x="492.417" y="1002.607" fill="none" stroke="#000000" stroke-miterlimit="10" width="99.111" height="57.754"/>
		</g>
		
			<rect id="slide3" x="-1582.145" y="-242.032" fill="none" stroke="#000000" stroke-miterlimit="10" width="2542.976" height="1481.876"/>
	</g>
	<g>
		<g>
			<path fill="#FFFFFF" d="M192.216,1187.514c0,4.511-3.691,8.201-8.202,8.201h-83.808c-4.512,0-8.203-3.69-8.203-8.201v-24.965
				c0-4.511,3.691-8.201,8.203-8.201h83.808c4.511,0,8.202,3.69,8.202,8.201V1187.514z"/>
			<path fill="#FFFFFF" d="M304.046,1187.514c0,4.511-3.691,8.201-8.202,8.201h-83.812c-4.511,0-8.202-3.69-8.202-8.201v-24.965
				c0-4.511,3.691-8.201,8.202-8.201h83.812c4.511,0,8.202,3.69,8.202,8.201V1187.514z"/>
			<path fill="#FFFFFF" d="M416.283,1187.514c0,4.511-3.691,8.201-8.203,8.201h-83.809c-4.511,0-8.202-3.69-8.202-8.201v-24.965
				c0-4.511,3.691-8.201,8.202-8.201h83.809c4.512,0,8.203,3.69,8.203,8.201V1187.514z"/>
		</g>
		<g>
			<g enable-background="new    ">
				<path d="M104.821,1168.049v6.742h-3.048v-6.742H99.9v-2.53h6.818v2.53H104.821z"/>
				<path d="M111.931,1174.791l-0.291-1.746h-1.948l-0.329,1.746h-2.998l2.34-9.272h4.099l2.213,9.272H111.931z M110.906,1169.263
					c-0.089-0.531-0.114-1.138-0.114-1.454h-0.152c0,0.316-0.051,0.923-0.152,1.467l-0.266,1.493h0.923L110.906,1169.263z"/>
				<path d="M115.637,1174.791v-9.272h3.036v9.272H115.637z"/>
				<path d="M120.292,1174.791v-9.272h3.036v6.729h2.606l0.19,2.543H120.292z"/>
				<path d="M130.362,1174.918c-2.707,0-4.098-1.455-4.098-4.731c0-3.327,1.417-4.794,4.098-4.794c2.593,0,4.099,1.328,4.099,4.73
					C134.46,1173.602,132.879,1174.918,130.362,1174.918z M130.362,1167.809c-0.784,0-0.923,0.139-0.923,2.353
					c0,2.176,0.126,2.34,0.923,2.34s0.923-0.164,0.923-2.34C131.285,1167.947,131.146,1167.809,130.362,1167.809z"/>
				<path d="M142.911,1174.791c-0.304,0.038-0.747,0.076-1,0.076c-1.252,0-1.771-0.418-2.251-1.48l-0.784-1.732h-0.329v3.137H135.6
					v-9.272h3.984c1.923,0,3.264,0.76,3.264,2.821c0,1.177-0.468,2.011-1.227,2.53l0.607,1.1c0.101,0.19,0.152,0.241,0.379,0.241
					c0.101,0,0.215-0.013,0.304-0.025V1174.791z M139.318,1167.821h-0.771v1.67h0.734c0.405,0,0.569-0.203,0.569-0.873
					C139.85,1167.998,139.686,1167.821,139.318,1167.821z"/>
				<path d="M143.645,1172.514v-2.176h2.606v2.176H143.645z"/>
				<path d="M155.131,1174.791c0,0-0.063-2.745-0.088-4.111c-0.013-0.316-0.013-0.632-0.013-0.936h-0.152
					c0,0.202-0.051,0.531-0.126,0.936l-0.797,4.111h-2.922l-0.898-4.111c-0.063-0.316-0.088-0.733-0.088-0.936h-0.152
					c0,0.366,0,0.557-0.013,0.936l-0.177,4.111h-2.656l0.645-9.272h3.618l1.1,4.655c0.089,0.38,0.114,0.898,0.114,1.265h0.151
					c0-0.366,0.025-0.885,0.102-1.265l0.949-4.655h3.693l0.582,9.272H155.131z"/>
				<path d="M163.898,1174.791l-0.291-1.746h-1.948l-0.329,1.746h-2.998l2.34-9.272h4.099l2.213,9.272H163.898z M162.874,1169.263
					c-0.089-0.531-0.114-1.138-0.114-1.454h-0.152c0,0.316-0.051,0.923-0.152,1.467l-0.266,1.493h0.923L162.874,1169.263z"/>
				<path d="M171.374,1174.791h-3.77v-9.272h3.731c2.479,0,4.2,1.266,4.2,4.453C175.536,1173.058,174.068,1174.791,171.374,1174.791
					z M171.323,1167.935h-0.708v4.402h0.696c1.012,0,1.062-0.304,1.062-2.314C172.374,1168.125,172.121,1167.935,171.323,1167.935z"
					/>
				<path d="M176.675,1174.791v-9.272h6.262v2.53h-3.226v0.835h2.972v2.518h-2.972v0.859h3.327l0.126,2.53H176.675z"/>
			</g>
			<g enable-background="new    ">
				<path d="M108.332,1184.635h-2.933v-7.214h2.903c1.929,0,3.268,0.984,3.268,3.464
					C111.569,1183.286,110.428,1184.635,108.332,1184.635z M108.292,1179.301h-0.551v3.425h0.542c0.787,0,0.827-0.236,0.827-1.801
					C109.109,1179.448,108.912,1179.301,108.292,1179.301z"/>
				<path d="M112.456,1184.635v-7.214h4.872v1.968h-2.51v0.65h2.313v1.958h-2.313v0.669h2.589l0.098,1.969H112.456z"/>
				<path d="M122.573,1184.635h-2.893l-1.851-7.214h2.431l0.728,3.828c0.079,0.413,0.118,0.827,0.118,1.053h0.118
					c0-0.226,0.03-0.64,0.108-1.053l0.728-3.828h2.362L122.573,1184.635z"/>
				<path d="M125.064,1184.635v-7.214h4.872v1.968h-2.51v0.65h2.313v1.958h-2.313v0.669h2.589l0.098,1.969H125.064z"/>
				<path d="M131.058,1184.635v-7.214h2.362v5.235h2.028l0.147,1.979H131.058z"/>
				<path d="M138.893,1184.733c-2.106,0-3.189-1.132-3.189-3.681c0-2.589,1.103-3.73,3.189-3.73c2.018,0,3.188,1.033,3.188,3.681
					C142.082,1183.71,140.852,1184.733,138.893,1184.733z M138.893,1179.202c-0.61,0-0.719,0.108-0.719,1.83
					c0,1.693,0.099,1.821,0.719,1.821s0.718-0.128,0.718-1.821C139.611,1179.311,139.503,1179.202,138.893,1179.202z"/>
				<path d="M145.871,1182.559h-0.561v2.076h-2.342v-7.214h2.923c1.742,0,2.727,0.718,2.727,2.489
					C148.617,1181.918,147.387,1182.559,145.871,1182.559z M145.714,1179.212h-0.404v1.555h0.404c0.325,0,0.482-0.088,0.482-0.856
					C146.196,1179.32,146.029,1179.212,145.714,1179.212z"/>
				<path d="M155.536,1184.635c0,0-0.049-2.136-0.069-3.198c-0.01-0.246-0.01-0.492-0.01-0.729h-0.118
					c0,0.157-0.04,0.413-0.098,0.729l-0.62,3.198h-2.273l-0.699-3.198c-0.049-0.246-0.069-0.571-0.069-0.729h-0.118
					c0,0.285,0,0.433-0.01,0.729l-0.138,3.198h-2.067l0.502-7.214h2.815l0.856,3.621c0.069,0.296,0.088,0.699,0.088,0.984h0.118
					c0-0.285,0.02-0.688,0.079-0.984l0.738-3.621h2.874l0.453,7.214H155.536z"/>
				<path d="M158.805,1184.635v-7.214h4.872v1.968h-2.509v0.65h2.312v1.958h-2.312v0.669h2.588l0.098,1.969H158.805z"/>
				<path d="M168.539,1184.635l-1.24-2.727c-0.118-0.256-0.236-0.609-0.295-0.935h-0.118c0.02,0.295,0.04,0.659,0.04,0.935v2.727
					h-2.126v-7.214h2.411l0.994,2.185c0.118,0.227,0.227,0.571,0.305,0.936h0.118c-0.03-0.306-0.049-0.641-0.049-0.936v-2.185h2.136
					v7.214H168.539z"/>
				<path d="M175.34,1179.389v5.246h-2.372v-5.246h-1.457v-1.968h5.305v1.968H175.34z"/>
			</g>
			<g enable-background="new    ">
				<path d="M214.993,1173.612c-2.362,0-3.159-1.319-3.159-3.711c0-2.785,1.23-3.7,3.12-3.7c0.581,0,1.27,0.099,2.165,0.403
					l-0.433,2.047c-1.023-0.363-1.338-0.413-1.673-0.413c-0.522,0-0.709,0.147-0.709,1.644c0,1.595,0.167,1.693,0.778,1.693
					c0.354,0,0.728-0.06,1.751-0.512l0.364,2.105C215.869,1173.583,215.544,1173.612,214.993,1173.612z"/>
				<path d="M223.812,1173.514c-0.236,0.029-0.581,0.059-0.777,0.059c-0.974,0-1.378-0.324-1.752-1.151l-0.61-1.348h-0.256v2.44
					h-2.293v-7.214h3.1c1.496,0,2.54,0.59,2.54,2.194c0,0.915-0.364,1.565-0.955,1.969l0.473,0.856
					c0.079,0.147,0.118,0.187,0.295,0.187c0.079,0,0.167-0.01,0.236-0.02V1173.514z M221.017,1168.091h-0.601v1.299h0.571
					c0.315,0,0.443-0.157,0.443-0.679C221.431,1168.229,221.302,1168.091,221.017,1168.091z"/>
				<path d="M227.612,1173.612c-2.106,0-3.189-1.132-3.189-3.681c0-2.589,1.103-3.73,3.189-3.73c2.018,0,3.188,1.033,3.188,3.681
					C230.8,1172.589,229.57,1173.612,227.612,1173.612z M227.612,1168.081c-0.61,0-0.719,0.108-0.719,1.83
					c0,1.693,0.099,1.821,0.719,1.821s0.718-0.128,0.718-1.821C228.33,1168.189,228.222,1168.081,227.612,1168.081z"/>
				<path d="M233.832,1173.612c-0.689,0-1.191-0.05-2.569-0.521l0.551-1.979c1.673,0.531,1.86,0.551,2.264,0.551
					c0.256,0,0.354-0.039,0.354-0.275c0-0.196-0.049-0.236-0.315-0.324l-1.152-0.384c-0.925-0.306-1.594-0.856-1.594-2.106
					c0-1.535,1.191-2.372,2.825-2.372c0.512,0,1.122,0.068,2.362,0.364l-0.492,1.988c-1.319-0.325-1.683-0.364-2.106-0.364
					c-0.216,0-0.295,0.039-0.295,0.256c0,0.147,0.04,0.196,0.276,0.266l1.21,0.354c0.935,0.275,1.594,0.866,1.594,2.086
					C236.745,1172.756,235.446,1173.612,233.832,1173.612z"/>
				<path d="M239.757,1173.612c-0.689,0-1.191-0.05-2.569-0.521l0.551-1.979c1.673,0.531,1.86,0.551,2.264,0.551
					c0.256,0,0.354-0.039,0.354-0.275c0-0.196-0.049-0.236-0.315-0.324l-1.152-0.384c-0.925-0.306-1.594-0.856-1.594-2.106
					c0-1.535,1.191-2.372,2.825-2.372c0.512,0,1.122,0.068,2.362,0.364l-0.492,1.988c-1.319-0.325-1.683-0.364-2.106-0.364
					c-0.216,0-0.295,0.039-0.295,0.256c0,0.147,0.04,0.196,0.276,0.266l1.21,0.354c0.935,0.275,1.594,0.866,1.594,2.086
					C242.67,1172.756,241.372,1173.612,239.757,1173.612z"/>
				<path d="M243.124,1171.742v-1.693h2.028v1.693H243.124z"/>
				<path d="M248.901,1171.438h-0.561v2.076h-2.342v-7.214h2.923c1.742,0,2.727,0.718,2.727,2.489
					C251.647,1170.797,250.417,1171.438,248.901,1171.438z M248.744,1168.091h-0.404v1.555h0.404c0.325,0,0.482-0.088,0.482-0.856
					C249.226,1168.199,249.059,1168.091,248.744,1168.091z"/>
				<path d="M252.504,1173.514v-7.214h2.362v5.235h2.027l0.147,1.979H252.504z"/>
				<path d="M261.372,1173.514l-0.226-1.358h-1.516l-0.256,1.358h-2.333l1.821-7.214h3.188l1.723,7.214H261.372z M260.575,1169.213
					c-0.069-0.413-0.089-0.886-0.089-1.132h-0.118c0,0.246-0.039,0.719-0.118,1.142l-0.207,1.161h0.719L260.575,1169.213z"/>
				<path d="M267.326,1168.268v5.246h-2.372v-5.246h-1.457v-1.968h5.305v1.968H267.326z"/>
				<path d="M271.963,1171.112v2.401h-2.362v-7.214h4.724v1.968h-2.362v0.866h2.155v1.979H271.963z"/>
				<path d="M278.114,1173.612c-2.106,0-3.189-1.132-3.189-3.681c0-2.589,1.103-3.73,3.189-3.73c2.018,0,3.188,1.033,3.188,3.681
					C281.303,1172.589,280.073,1173.612,278.114,1173.612z M278.114,1168.081c-0.61,0-0.719,0.108-0.719,1.83
					c0,1.693,0.099,1.821,0.719,1.821s0.718-0.128,0.718-1.821C278.833,1168.189,278.724,1168.081,278.114,1168.081z"/>
				<path d="M287.877,1173.514c-0.236,0.029-0.581,0.059-0.777,0.059c-0.974,0-1.378-0.324-1.752-1.151l-0.61-1.348h-0.256v2.44
					h-2.293v-7.214h3.1c1.496,0,2.54,0.59,2.54,2.194c0,0.915-0.364,1.565-0.955,1.969l0.473,0.856
					c0.079,0.147,0.118,0.187,0.295,0.187c0.079,0,0.167-0.01,0.236-0.02V1173.514z M285.083,1168.091h-0.601v1.299h0.571
					c0.315,0,0.443-0.157,0.443-0.679C285.496,1168.229,285.368,1168.091,285.083,1168.091z"/>
				<path d="M294.925,1173.514c0,0-0.049-2.136-0.069-3.198c-0.01-0.246-0.01-0.492-0.01-0.729h-0.118
					c0,0.157-0.04,0.413-0.098,0.729l-0.62,3.198h-2.273l-0.699-3.198c-0.049-0.246-0.069-0.571-0.069-0.729h-0.118
					c0,0.285,0,0.433-0.01,0.729l-0.138,3.198h-2.067l0.502-7.214h2.815l0.856,3.621c0.069,0.296,0.088,0.699,0.088,0.984h0.118
					c0-0.285,0.02-0.688,0.079-0.984l0.738-3.621h2.874l0.453,7.214H294.925z"/>
			</g>
			<g enable-background="new    ">
				<path d="M219.062,1183.904c0,0-0.06-2.609-0.084-3.908c-0.012-0.3-0.012-0.601-0.012-0.89h-0.145c0,0.192-0.048,0.505-0.12,0.89
					l-0.757,3.908h-2.778l-0.854-3.908c-0.06-0.3-0.084-0.697-0.084-0.89h-0.145c0,0.349,0,0.529-0.012,0.89l-0.168,3.908h-2.525
					l0.613-8.813h3.438l1.046,4.425c0.084,0.36,0.108,0.854,0.108,1.202h0.145c0-0.349,0.024-0.842,0.096-1.202l0.902-4.425h3.511
					l0.553,8.813H219.062z"/>
				<path d="M226.499,1184.024c-2.573,0-3.896-1.383-3.896-4.497c0-3.162,1.347-4.557,3.896-4.557c2.465,0,3.896,1.263,3.896,4.497
					C230.394,1182.774,228.891,1184.024,226.499,1184.024z M226.499,1177.268c-0.746,0-0.878,0.132-0.878,2.236
					c0,2.067,0.12,2.224,0.878,2.224c0.757,0,0.877-0.156,0.877-2.224C227.376,1177.399,227.244,1177.268,226.499,1177.268z"/>
				<path d="M235.052,1183.904h-3.571v-8.813h3.559c2.032,0,3.162,0.553,3.162,2.261c0,1.082-0.529,1.659-1.347,1.899v0.132
					c1.046,0.229,1.539,0.891,1.539,1.937C238.394,1183.363,237.072,1183.904,235.052,1183.904z M234.991,1177.243h-0.721v1.311
					h0.709c0.252,0,0.409-0.181,0.409-0.697C235.388,1177.388,235.244,1177.243,234.991,1177.243z M235.052,1180.405h-0.782v1.347
					h0.746c0.349,0,0.445-0.204,0.445-0.686C235.46,1180.573,235.34,1180.405,235.052,1180.405z"/>
				<path d="M239.48,1183.904v-8.813h2.886v8.813H239.48z"/>
				<path d="M243.908,1183.904v-8.813h2.886v6.396h2.477l0.18,2.417H243.908z"/>
				<path d="M250.404,1183.904v-8.813h5.952v2.404h-3.066v0.794h2.826v2.393h-2.826v0.818h3.162l0.121,2.404H250.404z"/>
			</g>
			<g enable-background="new    ">
				<path d="M268.378,1179.852c0,0.281-0.053,0.554-0.159,0.816l-0.117,0.059l-0.335,0.341l-0.329,0.188l-0.165,0.029l-0.111,0.083
					l-0.37,0.094c-0.122,0.035-0.182,0.104-0.182,0.205l0.07,0.241l-0.105,0.082l-0.035,0.159c-0.012,0.109-0.028,0.179-0.047,0.208
					s-0.053,0.044-0.1,0.044l-0.194-0.035c0,0.086,0.029,0.163,0.088,0.229l-0.111,0.141l-0.129,0.1l-0.111,0.13l-0.382,0.229
					l-0.077,0.111l-0.241,0.071l-0.464,0.275l-0.505,0.218l-0.57,0.17l-0.458,0.047l-0.382,0.083l-0.159-0.012l-0.012,0.047h-0.194
					l-0.165-0.106c-0.047,0.04-0.07,0.083-0.07,0.13h-0.1h-0.047c-0.176,0-0.306-0.019-0.388-0.056s-0.145-0.104-0.188-0.197
					l-0.064,0.012l-0.071-0.07h-0.047l-0.023,0.123c-0.079,0-0.135-0.007-0.17-0.021s-0.096-0.052-0.182-0.114
					c-0.168-0.133-0.297-0.254-0.388-0.361c-0.09-0.107-0.168-0.235-0.235-0.385c0.047-0.094,0.07-0.154,0.07-0.182l-0.012-0.071
					l-0.082-0.082l-0.229-0.123l-0.035-0.141l0.012-0.101c0.059,0,0.1-0.009,0.123-0.026s0.051-0.056,0.083-0.114l-0.088-0.1
					l-0.082,0.012c-0.071,0-0.106-0.062-0.106-0.188c0-0.105,0.023-0.207,0.071-0.306l0.182-0.382l0.117-0.252l0.106-0.123
					l0.123-0.2l0.118-0.076l0.206-0.241l0.206-0.094l0.194-0.3l0.217-0.205l0.035-0.136l0.358-0.164l0.112-0.111l0.094-0.095
					c-0.145-0.059-0.239-0.115-0.282-0.17c-0.043-0.055-0.069-0.143-0.077-0.265l-0.241,0.047l-0.388-0.429l0.035-0.158
					c0-0.059-0.043-0.111-0.129-0.159l0.129-0.287l-0.047-0.023v-0.095c0-0.078,0.011-0.14,0.032-0.185s0.064-0.097,0.126-0.155
					c0.066-0.004,0.111-0.015,0.135-0.032c0.023-0.019,0.055-0.062,0.094-0.133c0.039-0.082,0.122-0.173,0.247-0.273
					c0.125-0.1,0.239-0.161,0.341-0.185l0.035-0.135l0.241-0.023l0.147-0.142l0.711-0.275l0.311-0.194l0.406-0.012l0.569-0.111
					c0.168,0.012,0.28,0.096,0.335,0.252l0.17,0.054l0.07,0.264c0.059,0.059,0.094,0.114,0.106,0.165
					c0,0.066-0.055,0.127-0.165,0.182l-0.112-0.059l-0.417-0.1l-0.158-0.059l-0.147,0.059l-0.176-0.095l-0.023,0.071l-0.147,0.035
					l-0.217-0.059l-0.335,0.1l-0.012-0.041l-0.17-0.035l-0.105,0.035l-0.341,0.123l-0.141,0.082l-0.111,0.035l-0.494,0.411
					c-0.039,0.016-0.082,0.039-0.129,0.071c-0.02,0.02-0.065,0.16-0.135,0.423l-0.047,0.129l0.146,0.146l0.129,0.095l0.023,0.123
					l0.182,0.117l0.159,0.111l0.816,0.194l0.159,0.059l0.129-0.012l0.675,0.023l0.299-0.111l0.323-0.012l0.252-0.059l0.241,0.07
					l-0.194,0.47l-0.176,0.076c-0.153,0.043-0.25,0.076-0.291,0.1c-0.041,0.024-0.077,0.071-0.108,0.142l-0.206-0.064l-0.106-0.095
					l-0.123-0.059l-0.176,0.07l-0.17-0.059l-0.083,0.059l-0.329-0.035l-0.323,0.171l-0.252-0.029l-0.147,0.053l0.1,0.141
					l-0.229,0.035l-0.334,0.206l-0.241,0.123l-0.446,0.529c-0.039,0.039-0.116,0.07-0.229,0.094
					c-0.012,0.078-0.073,0.23-0.182,0.458l-0.094,0.335v0.217l-0.047,0.112l0.059,0.129l0.047,0.335l0.111,0.193l0.059,0.159
					l0.129,0.129l0.112,0.183l0.405,0.411c0.035,0.035,0.078,0.074,0.129,0.117c0.051,0.043,0.098,0.075,0.141,0.097
					c0.043,0.021,0.09,0.038,0.141,0.05l0.358,0.082l0.423,0.036l0.194-0.012l0.023,0.059l0.135-0.023h0.323l0.182-0.083
					l0.165-0.047l0.617-0.24l0.188-0.035l0.042-0.112c0.239-0.141,0.41-0.255,0.514-0.344c0.104-0.088,0.208-0.222,0.314-0.402
					l0.105-0.176l0.036-0.276l0.041-0.217c-0.008-0.083-0.096-0.192-0.265-0.329l-0.423-0.323c-0.105-0.109-0.182-0.18-0.229-0.212
					c-0.047-0.031-0.127-0.061-0.241-0.088l-0.288-0.146l-0.194-0.035l-0.311,0.082l-0.206,0.053
					c-0.063,0.016-0.116,0.066-0.159,0.153l-0.141,0.264l-0.135,0.136l0.064,0.275v0.012c0,0.02-0.021,0.051-0.064,0.094
					c-0.051,0.044-0.11,0.065-0.176,0.065c-0.036,0-0.065-0.012-0.088-0.035l-0.07-0.077l-0.159-0.094
					c-0.055-0.043-0.082-0.111-0.082-0.205c0-0.118,0.031-0.202,0.094-0.253l0.264-0.229l0.353-0.299l0.394-0.147l0.57-0.24
					l0.241-0.047l0.229,0.012l0.452,0.135l0.329,0.176l0.023,0.124l0.07,0.158l0.118,0.047l0.053-0.111l-0.053-0.094l0.146,0.07
					l0.364,0.229l0.265,0.124c0.164,0,0.413-0.109,0.746-0.329c0.118-0.07,0.18-0.125,0.188-0.165l0.088-0.493
					c0-0.105-0.092-0.27-0.276-0.493c0.031-0.055,0.06-0.093,0.085-0.114s0.063-0.04,0.114-0.056l0.194-0.071l0.112,0.106
					l0.047,0.07l0.265,0.111c0.043,0.035,0.086,0.111,0.129,0.229H268.378z"/>
			</g>
			<g enable-background="new    ">
				<path d="M281.306,1183.904h-3.09l-0.842-4.04c-0.072-0.324-0.108-0.758-0.108-1.215h-0.144c0,0.457-0.036,0.902-0.096,1.215
					l-0.842,4.04h-3.09l-1.587-8.813h2.837l0.445,4.016c0.048,0.409,0.084,1.059,0.084,1.359h0.144c0-0.301,0.036-0.95,0.108-1.359
					l0.661-3.571h2.946l0.637,3.571c0.084,0.505,0.108,1.082,0.108,1.359h0.145c0-0.277,0.036-0.854,0.096-1.359l0.469-4.016h2.706
					L281.306,1183.904z"/>
				<path d="M283.994,1183.904v-8.813h5.952v2.404h-3.066v0.794h2.826v2.393h-2.826v0.818h3.162l0.121,2.404H283.994z"/>
				<path d="M294.891,1183.904h-3.571v-8.813h3.559c2.032,0,3.162,0.553,3.162,2.261c0,1.082-0.529,1.659-1.347,1.899v0.132
					c1.046,0.229,1.539,0.891,1.539,1.937C298.233,1183.363,296.911,1183.904,294.891,1183.904z M294.831,1177.243h-0.722v1.311
					h0.709c0.252,0,0.409-0.181,0.409-0.697C295.228,1177.388,295.083,1177.243,294.831,1177.243z M294.891,1180.405h-0.782v1.347
					h0.746c0.349,0,0.445-0.204,0.445-0.686C295.3,1180.573,295.18,1180.405,294.891,1180.405z"/>
			</g>
			<g enable-background="new    ">
				<path d="M330.286,1172.588v3.035h-2.868v-3.035l-2.306-5.723h2.927l0.621,2.079c0.12,0.406,0.155,0.92,0.155,1.374h0.144
					c0-0.454,0.048-0.968,0.167-1.374l0.622-2.079h2.843L330.286,1172.588z"/>
				<path d="M336.233,1175.742c-2.557,0-3.871-1.374-3.871-4.468c0-3.143,1.338-4.528,3.871-4.528c2.449,0,3.871,1.254,3.871,4.469
					C340.104,1174.5,338.61,1175.742,336.233,1175.742z M336.233,1169.028c-0.741,0-0.872,0.131-0.872,2.222
					c0,2.056,0.12,2.211,0.872,2.211c0.753,0,0.872-0.155,0.872-2.211C337.105,1169.159,336.974,1169.028,336.233,1169.028z"/>
				<path d="M344.7,1175.742c-1.983,0-3.608-0.466-3.608-3.5v-5.377h2.879v5.52c0,0.693,0.06,0.86,0.789,0.86
					c0.705,0,0.789-0.167,0.789-0.86v-5.52h2.76v5.377C348.308,1174.763,347.173,1175.742,344.7,1175.742z"/>
				<path d="M356.656,1175.623c-0.287,0.036-0.705,0.071-0.944,0.071c-1.183,0-1.673-0.394-2.127-1.397l-0.741-1.637h-0.311v2.963
					h-2.784v-8.758h3.764c1.816,0,3.083,0.717,3.083,2.664c0,1.111-0.442,1.9-1.159,2.39l0.574,1.04
					c0.095,0.179,0.143,0.227,0.358,0.227c0.095,0,0.203-0.012,0.287-0.023V1175.623z M353.263,1169.04h-0.729v1.577h0.693
					c0.382,0,0.538-0.191,0.538-0.824C353.765,1169.207,353.609,1169.04,353.263,1169.04z"/>
				<path d="M360.235,1175.623v-8.758h2.868v8.758H360.235z"/>
				<path d="M368.19,1175.623h-3.561v-8.758h3.524c2.342,0,3.967,1.195,3.967,4.206
					C372.121,1173.986,370.735,1175.623,368.19,1175.623z M368.143,1169.147h-0.669v4.158h0.657c0.956,0,1.004-0.287,1.004-2.187
					C369.134,1169.326,368.895,1169.147,368.143,1169.147z"/>
				<path d="M373.192,1175.623v-8.758h5.914v2.39h-3.047v0.789h2.808v2.377h-2.808v0.812h3.143l0.119,2.39H373.192z"/>
				<path d="M384.778,1175.623l-0.275-1.648h-1.84l-0.311,1.648h-2.832l2.21-8.758h3.871l2.091,8.758H384.778z M383.81,1170.402
					c-0.083-0.502-0.107-1.076-0.107-1.374h-0.144c0,0.298-0.047,0.872-0.143,1.386l-0.251,1.409h0.872L383.81,1170.402z"/>
				<path d="M394.75,1169.255v6.368h-2.879v-6.368h-1.768v-2.39h6.44v2.39H394.75z"/>
				<path d="M400.924,1175.742c-2.557,0-3.872-1.374-3.872-4.468c0-3.143,1.338-4.528,3.872-4.528c2.449,0,3.87,1.254,3.87,4.469
					C404.794,1174.5,403.301,1175.742,400.924,1175.742z M400.924,1169.028c-0.741,0-0.873,0.131-0.873,2.222
					c0,2.056,0.12,2.211,0.873,2.211c0.752,0,0.872-0.155,0.872-2.211C401.796,1169.159,401.664,1169.028,400.924,1169.028z"/>
			</g>
			<g enable-background="new    ">
				<path d="M327.555,1182.927c-1.908,0-2.552-1.064-2.552-2.997c0-2.249,0.994-2.988,2.52-2.988c0.469,0,1.026,0.079,1.749,0.325
					l-0.35,1.654c-0.827-0.295-1.081-0.334-1.352-0.334c-0.421,0-0.572,0.119-0.572,1.327c0,1.288,0.135,1.367,0.628,1.367
					c0.286,0,0.588-0.048,1.415-0.413l0.294,1.701C328.262,1182.903,328,1182.927,327.555,1182.927z"/>
				<path d="M332.354,1182.927c-1.701,0-2.576-0.914-2.576-2.973c0-2.091,0.891-3.013,2.576-3.013c1.63,0,2.576,0.834,2.576,2.973
					C334.931,1182.101,333.937,1182.927,332.354,1182.927z M332.354,1178.459c-0.493,0-0.58,0.088-0.58,1.479
					c0,1.367,0.08,1.471,0.58,1.471c0.501,0,0.581-0.104,0.581-1.471C332.935,1178.547,332.848,1178.459,332.354,1178.459z"/>
				<path d="M340.541,1182.848c0,0-0.04-1.726-0.056-2.584c-0.008-0.198-0.008-0.397-0.008-0.588h-0.095
					c0,0.127-0.032,0.334-0.08,0.588l-0.501,2.584h-1.836l-0.564-2.584c-0.04-0.198-0.056-0.461-0.056-0.588h-0.095
					c0,0.23,0,0.35-0.008,0.588l-0.111,2.584h-1.669l0.405-5.827h2.273l0.692,2.926c0.056,0.238,0.071,0.564,0.071,0.795h0.096
					c0-0.23,0.016-0.557,0.063-0.795l0.596-2.926h2.321l0.366,5.827H340.541z"/>
				<path d="M345.523,1181.17h-0.453v1.678h-1.892v-5.827h2.361c1.407,0,2.202,0.58,2.202,2.011
					C347.741,1180.653,346.747,1181.17,345.523,1181.17z M345.396,1178.468h-0.326v1.256h0.326c0.263,0,0.39-0.072,0.39-0.692
					C345.785,1178.555,345.65,1178.468,345.396,1178.468z"/>
				<path d="M348.431,1182.848v-5.827h1.908v4.229h1.637l0.12,1.598H348.431z"/>
				<path d="M352.722,1182.848v-5.827h3.935v1.59h-2.027v0.524h1.869v1.582h-1.869v0.541h2.091l0.08,1.59H352.722z"/>
				<path d="M360.281,1178.61v4.237h-1.916v-4.237h-1.176v-1.59h4.285v1.59H360.281z"/>
				<path d="M362.116,1182.848v-5.827h3.935v1.59h-2.027v0.524h1.869v1.582h-1.869v0.541h2.091l0.08,1.59H362.116z"/>
				<path d="M370.914,1182.848h-2.369v-5.827h2.345c1.558,0,2.639,0.795,2.639,2.798
					C373.529,1181.759,372.607,1182.848,370.914,1182.848z M370.882,1178.539h-0.445v2.767h0.437c0.636,0,0.668-0.191,0.668-1.455
					C371.542,1178.658,371.383,1178.539,370.882,1178.539z"/>
				<path d="M374.243,1182.848v-5.827h3.935v1.59h-2.027v0.524h1.869v1.582h-1.869v0.541h2.091l0.08,1.59H374.243z"/>
				<path d="M379.083,1182.848v-5.827h1.908v4.229h1.638l0.12,1.598H379.083z"/>
				<path d="M383.374,1182.848v-5.827h1.908v5.827H383.374z"/>
				<path d="M389.629,1182.848h-2.337l-1.495-5.827h1.964l0.588,3.093c0.063,0.334,0.095,0.667,0.095,0.851h0.095
					c0-0.184,0.024-0.517,0.087-0.851l0.588-3.093h1.908L389.629,1182.848z"/>
				<path d="M391.639,1182.848v-5.827h3.935v1.59h-2.027v0.524h1.869v1.582h-1.869v0.541h2.091l0.08,1.59H391.639z"/>
				<path d="M401.073,1182.848c-0.19,0.023-0.469,0.048-0.628,0.048c-0.787,0-1.113-0.263-1.415-0.931l-0.493-1.089h-0.207v1.972
					h-1.853v-5.827h2.504c1.208,0,2.051,0.477,2.051,1.772c0,0.739-0.295,1.265-0.771,1.59l0.382,0.692
					c0.063,0.119,0.095,0.15,0.238,0.15c0.063,0,0.135-0.008,0.19-0.016V1182.848z M398.816,1178.468h-0.485v1.049h0.461
					c0.254,0,0.357-0.127,0.357-0.549C399.149,1178.578,399.046,1178.468,398.816,1178.468z"/>
				<path d="M404.61,1180.828v2.02h-1.908v-2.02l-1.534-3.808h1.947l0.413,1.383c0.08,0.271,0.104,0.612,0.104,0.915h0.096
					c0-0.303,0.031-0.645,0.111-0.915l0.413-1.383h1.893L404.61,1180.828z"/>
			</g>
		</g>
		<rect id="slide2" x="39.717" y="984.48" fill="none" stroke="#000000" stroke-miterlimit="10" width="421.05" height="241.968"/>
	</g>
	<g enable-background="new    ">
		<path fill="#021600" d="M-1441.788-69.125v-38.291l-10.309,2.045l-1.146-14.973l13.827-2.864h14.728v54.082H-1441.788z"/>
		<path fill="#021600" d="M-1397.358-62.416c-4.991,0-11.618-0.9-15.873-2.7l2.618-16.2c4.664,2.045,10.636,2.945,14.4,2.945
			c4.173,0,5.482-0.491,5.482-3.682c0-3.109-0.982-3.518-5.4-3.518h-11.863v-15.463h13.254c3.518,0,4.336-0.818,4.336-3.682
			c0-2.618-0.9-3.272-4.091-3.272c-3.109,0-10.8,0.818-15.3,2.373l-1.718-16.036c6.136-1.718,13.745-2.373,18.9-2.373
			c11.945,0,20.291,4.5,20.291,16.2c0,6.382-3.764,11.291-10.963,13.172v0.737c7.118,1.309,11.127,5.809,11.127,13.009
			C-1372.159-66.998-1383.94-62.416-1397.358-62.416z"/>
		<path fill="#021600" d="M-1340.41-68.307c-12.682,0-22.827-4.828-22.827-27.9c0-21.437,10.636-27.818,22.827-27.818
			c13.173,0,22.664,5.727,22.664,27.818C-1317.746-75.67-1327.155-68.307-1340.41-68.307z M-1340.41-109.543
			c-3.027,0-4.418,0.655-4.418,13.336c0,13.009,1.227,13.418,4.254,13.418c3.109,0,4.418-0.818,4.418-13.418
			C-1336.155-109.052-1337.219-109.543-1340.41-109.543z"/>
		<path fill="#021600" d="M-1292.623-69.125v-59.972h40.5v16.363h-20.863v5.4h19.227v16.282h-19.227v5.564h21.518l0.818,16.363
			H-1292.623z"/>
		<path fill="#021600" d="M-1192.394-69.125c0,0-0.409-17.754-0.572-26.591c-0.082-2.045-0.082-4.091-0.082-6.054h-0.982
			c0,1.309-0.327,3.436-0.818,6.054l-5.155,26.591h-18.9l-5.809-26.591c-0.409-2.045-0.573-4.745-0.573-6.054h-0.981
			c0,2.373,0,3.6-0.082,6.054l-1.146,26.591h-17.182l4.173-59.972h23.4l7.118,30.109c0.573,2.455,0.736,5.809,0.736,8.182h0.981
			c0-2.373,0.164-5.727,0.655-8.182l6.136-30.109h23.891l3.764,59.972H-1192.394z"/>
		<path fill="#021600" d="M-1141.088-86.389h-4.664v17.264h-19.473v-59.972h24.3c14.482,0,22.664,5.973,22.664,20.7
			C-1118.261-91.707-1128.488-86.389-1141.088-86.389z M-1142.397-114.207h-3.354v12.927h3.354c2.7,0,4.009-0.736,4.009-7.118
			C-1138.388-113.307-1139.779-114.207-1142.397-114.207z"/>
		<path fill="#021600" d="M-1111.139-69.125v-59.972h19.636v43.527h16.854l1.227,16.445H-1111.139z"/>
		<path fill="#021600" d="M-1046.009-68.307c-17.509,0-26.509-9.409-26.509-30.6c0-21.518,9.164-31.009,26.509-31.009
			c16.772,0,26.509,8.591,26.509,30.6C-1019.5-76.816-1029.728-68.307-1046.009-68.307z M-1046.009-114.288
			c-5.073,0-5.973,0.9-5.973,15.218c0,14.073,0.818,15.136,5.973,15.136c5.154,0,5.973-1.063,5.973-15.136
			C-1040.037-113.388-1040.937-114.288-1046.009-114.288z"/>
		<path fill="#021600" d="M-985.542-89.907v20.782h-19.636v-20.782l-15.791-39.19h20.045l4.255,14.236
			c0.818,2.782,1.063,6.3,1.063,9.409h0.982c0-3.109,0.327-6.627,1.146-9.409l4.254-14.236h19.473L-985.542-89.907z"/>
		<path fill="#021600" d="M-966.556-69.125v-59.972h40.5v16.363h-20.863v5.4h19.227v16.282h-19.227v5.564h21.518l0.818,16.363
			H-966.556z"/>
		<path fill="#021600" d="M-916.726-69.125v-59.972h40.5v16.363h-20.863v5.4h19.227v16.282h-19.227v5.564h21.518l0.818,16.363
			H-916.726z"/>
		<path fill="#021600" d="M-849.06-68.307c-5.728,0-9.9-0.409-21.354-4.336l4.582-16.445c13.909,4.418,15.464,4.582,18.818,4.582
			c2.127,0,2.945-0.327,2.945-2.291c0-1.636-0.409-1.963-2.618-2.7l-9.573-3.191c-7.691-2.536-13.254-7.118-13.254-17.509
			c0-12.764,9.9-19.718,23.481-19.718c4.255,0,9.328,0.573,19.636,3.027l-4.091,16.527c-10.963-2.7-13.991-3.027-17.509-3.027
			c-1.8,0-2.455,0.327-2.455,2.127c0,1.228,0.327,1.637,2.291,2.209l10.063,2.945c7.772,2.291,13.254,7.2,13.254,17.345
			C-824.842-75.425-835.642-68.307-849.06-68.307z"/>
		<path fill="#021600" d="M-801.274-69.125v-59.972h19.636v59.972H-801.274z"/>
		<path fill="#021600" d="M-740.072-69.125l-10.309-22.664c-0.982-2.127-1.964-5.073-2.455-7.772h-0.982
			c0.164,2.455,0.328,5.481,0.328,7.772v22.664h-17.673v-59.972h20.045l8.264,18.164c0.981,1.882,1.882,4.745,2.536,7.772h0.982
			c-0.246-2.536-0.409-5.318-0.409-7.772v-18.164h17.754v59.972H-740.072z"/>
	</g>
	<g enable-background="new    ">
		<path fill="#021600" d="M-1372.687,108.023V53.995h-25.368v54.028h-46.476V-33.921h46.476v48.993h25.368v-48.993h46.863v141.945
			H-1372.687z"/>
		<path fill="#021600" d="M-1301.036,108.023V-33.921h95.856v38.73h-49.381v12.781h45.508v38.536h-45.508v13.168h50.93l1.937,38.73
			H-1301.036z"/>
		<path fill="#021600" d="M-1183.104,108.023V-33.921h46.476V69.1h39.892l2.905,38.923H-1183.104z"/>
		<path fill="#021600" d="M-1036.319,109.96c-13.555,0-23.431-0.968-50.542-10.264l10.845-38.923
			c32.92,10.457,36.6,10.844,44.539,10.844c5.035,0,6.972-0.774,6.972-5.422c0-3.873-0.968-4.647-6.197-6.391l-22.657-7.552
			c-18.203-6.003-31.371-16.848-31.371-41.441c0-30.209,23.432-46.669,55.577-46.669c10.07,0,22.076,1.355,46.476,7.165
			l-9.683,39.117c-25.949-6.391-33.114-7.165-41.441-7.165c-4.26,0-5.81,0.774-5.81,5.035c0,2.905,0.775,3.873,5.422,5.229
			l23.819,6.972c18.396,5.422,31.371,17.041,31.371,41.054C-978.999,93.112-1004.561,109.96-1036.319,109.96z"/>
		<path fill="#021600" d="M-961.959,108.023V-33.921h46.476v141.945H-961.959z"/>
		<path fill="#021600" d="M-817.11,108.023l-24.4-53.641c-2.324-5.035-4.647-12.006-5.81-18.397h-2.324
			c0.387,5.81,0.774,12.975,0.774,18.397v53.641h-41.828V-33.921h47.444l19.559,42.99c2.324,4.454,4.454,11.231,6.003,18.396h2.324
			c-0.581-6.003-0.968-12.587-0.968-18.396v-42.99h42.022v141.945H-817.11z"/>
		<path fill="#021600" d="M-628.885,108.023c-6.778,0.774-10.457,1.162-15.298,1.162c-18.203,0-25.949-5.229-34.083-23.044
			l-11.619-25.562l-13.749,20.333v27.111h-45.895V-33.921h45.895v56.352h2.517c2.324-10.651,4.648-17.429,10.651-27.692l16.46-28.66
			h46.282v2.324l-33.695,49.768l22.076,46.67c1.355,2.904,1.937,3.679,5.81,3.679c1.355,0,3.098-0.194,4.647-0.387V108.023z"/>
		<path fill="#021600" d="M-610.877,108.023V-33.921h46.476v141.945H-610.877z"/>
	</g>
	<g enable-background="new    ">
		<path fill="#021600" d="M-1378.302,181.953v103.215h-46.669V181.953h-28.66v-38.73h104.377v38.73H-1378.302z"/>
		<path fill="#021600" d="M-1269.471,285.168l-4.454-26.724h-29.822l-5.035,26.724h-45.895l35.825-141.945h62.742l33.889,141.945
			H-1269.471z M-1285.157,200.543c-1.355-8.133-1.743-17.429-1.743-22.27h-2.324c0,4.841-0.775,14.137-2.324,22.463l-4.067,22.851
			h14.137L-1285.157,200.543z"/>
		<path fill="#021600" d="M-1093.445,285.168c0,0-0.968-42.022-1.355-62.936c-0.194-4.841-0.194-9.683-0.194-14.33h-2.324
			c0,3.099-0.775,8.133-1.937,14.33l-12.2,62.936h-44.733l-13.749-62.936c-0.968-4.841-1.355-11.231-1.355-14.33h-2.324
			c0,5.616,0,8.521-0.194,14.33l-2.711,62.936h-40.667l9.876-141.945h55.383l16.848,71.263c1.355,5.81,1.743,13.749,1.743,19.365
			h2.324c0-5.616,0.387-13.556,1.549-19.365l14.524-71.263h56.545l8.908,141.945H-1093.445z"/>
		<path fill="#021600" d="M-972.027,244.308h-11.038v40.86h-46.088V143.223h57.514c34.276,0,53.641,14.136,53.641,48.993
			C-917.999,231.721-942.205,244.308-972.027,244.308z M-975.125,178.467h-7.94v30.597h7.94c6.39,0,9.489-1.743,9.489-16.848
			C-965.636,180.597-968.928,178.467-975.125,178.467z"/>
		<path fill="#021600" d="M-901.151,285.168V143.223h95.856v38.73h-49.381v12.781h45.508v38.536h-45.508v13.168h50.93l1.937,38.73
			H-901.151z"/>
		<path fill="#021600" d="M-671.291,285.168c-4.647,0.581-11.425,1.162-15.298,1.162c-19.171,0-27.111-6.391-34.469-22.657
			l-12.006-26.53h-5.035v48.025h-45.12V143.223h61c29.435,0,49.961,11.619,49.961,43.184c0,18.009-7.165,30.791-18.784,38.73
			l9.295,16.848c1.549,2.904,2.324,3.679,5.81,3.679c1.549,0,3.292-0.194,4.647-0.387V285.168z M-726.287,178.467H-738.1v25.562
			h11.232c6.197,0,8.714-3.098,8.714-13.362C-718.153,181.178-720.671,178.467-726.287,178.467z"/>
		<path fill="#021600" d="M-651.926,285.168V143.223h95.856v38.73h-49.38v12.781h45.507v38.536h-45.507v13.168h50.93l1.937,38.73
			H-651.926z"/>
	</g>
	<g enable-background="new    ">
		<path fill="#021600" d="M-1387.017,462.316h-57.514V320.371h57.32c32.727,0,50.93,8.908,50.93,36.406
			c0,17.429-8.521,26.724-21.689,30.597v2.13c16.848,3.68,24.787,14.33,24.787,31.178
			C-1333.182,453.603-1354.483,462.316-1387.017,462.316z M-1387.985,355.035h-11.619v21.107h11.425
			c4.066,0,6.584-2.905,6.584-11.231C-1381.594,357.358-1383.918,355.035-1387.985,355.035z M-1387.017,405.965h-12.587v21.688
			h12.006c5.616,0,7.165-3.292,7.165-11.038C-1380.432,408.676-1382.369,405.965-1387.017,405.965z"/>
		<path fill="#021600" d="M-1315.754,462.316V320.371h95.856v38.73h-49.38v12.78h45.507v38.536h-45.507v13.169h50.93l1.937,38.729
			H-1315.754z"/>
		<path fill="#021600" d="M-1085.894,462.316c-4.647,0.581-11.425,1.162-15.298,1.162c-19.171,0-27.111-6.391-34.469-22.657
			l-12.006-26.53h-5.035v48.025h-45.12V320.371h61c29.435,0,49.961,11.619,49.961,43.185c0,18.009-7.165,30.79-18.784,38.729
			l9.295,16.848c1.549,2.904,2.324,3.679,5.81,3.679c1.549,0,3.292-0.193,4.647-0.387V462.316z M-1140.89,355.615h-11.813v25.562
			h11.232c6.197,0,8.714-3.099,8.714-13.362C-1132.757,358.327-1135.274,355.615-1140.89,355.615z"/>
		<path fill="#021600" d="M-1066.529,462.316V320.371h46.476v103.021h39.892l2.905,38.924H-1066.529z"/>
		<path fill="#021600" d="M-961.959,462.316V320.371h46.476v141.945H-961.959z"/>
		<path fill="#021600" d="M-817.11,462.316l-24.4-53.641c-2.324-5.035-4.647-12.007-5.81-18.396h-2.324
			c0.387,5.809,0.774,12.974,0.774,18.396v53.641h-41.828V320.371h47.444l19.559,42.99c2.324,4.454,4.454,11.232,6.003,18.396h2.324
			c-0.581-6.003-0.968-12.587-0.968-18.396v-42.99h42.022v141.945H-817.11z"/>
	</g>
	<g enable-background="new    ">
		<path fill="#FFFFFF" d="M147.329,1080.029v-5.13h-2.408v5.13h-4.413v-13.478h4.413v4.651h2.408v-4.651h4.45v13.478H147.329z"/>
		<path fill="#FFFFFF" d="M154.137,1080.029v-13.478h4.413v13.478H154.137z"/>
		<path fill="#FFFFFF" d="M166.036,1080.213c-4.155,0-5.829-2.225-5.829-6.932c0-4.965,1.967-6.913,6.307-6.913
			c0.993,0,2.354,0.128,4.542,0.754l-0.809,3.824c-1.691-0.606-2.905-0.772-3.751-0.772c-1.36,0-1.673,0.184-1.673,3.07
			c0,2.924,0.276,3.182,1.453,3.182c0.202,0,0.588-0.019,0.827-0.056v-1.158h-1.03v-3.365h5.112v7.355
			C169.419,1079.827,167.635,1080.213,166.036,1080.213z"/>
		<path fill="#FFFFFF" d="M180.234,1080.029v-5.13h-2.409v5.13h-4.413v-13.478h4.413v4.651h2.409v-4.651h4.45v13.478H180.234z"/>
		<path fill="#FFFFFF" d="M186.27,1076.72v-3.163h3.788v3.163H186.27z"/>
		<path fill="#FFFFFF" d="M191.64,1080.029v-13.478h9.102v3.678h-4.689v1.213h4.321v3.659h-4.321v1.25h4.836l0.184,3.678H191.64z"/>
		<path fill="#FFFFFF" d="M209.828,1080.029l-2.316-5.093c-0.221-0.479-0.441-1.141-0.552-1.747h-0.221
			c0.037,0.552,0.074,1.231,0.074,1.747v5.093h-3.972v-13.478h4.505l1.857,4.082c0.221,0.423,0.423,1.066,0.57,1.747h0.221
			c-0.055-0.57-0.092-1.195-0.092-1.747v-4.082h3.99v13.478H209.828z"/>
		<path fill="#FFFFFF" d="M221.729,1080.029h-5.479v-13.478h5.424c3.604,0,6.104,1.839,6.104,6.472
			C227.778,1077.511,225.645,1080.029,221.729,1080.029z M221.655,1070.063h-1.03v6.398h1.011c1.471,0,1.544-0.441,1.544-3.364
			C223.181,1070.34,222.813,1070.063,221.655,1070.063z"/>
		<path fill="#FFFFFF" d="M238.595,1080.029h-5.479v-13.478h5.424c3.604,0,6.104,1.839,6.104,6.472
			C244.644,1077.511,242.511,1080.029,238.595,1080.029z M238.521,1070.063h-1.03v6.398h1.011c1.471,0,1.544-0.441,1.544-3.364
			C240.047,1070.34,239.68,1070.063,238.521,1070.063z"/>
		<path fill="#FFFFFF" d="M246.303,1080.029v-13.478h9.102v3.678h-4.689v1.213h4.321v3.659h-4.321v1.25h4.836l0.184,3.678H246.303z"
			/>
		<path fill="#FFFFFF" d="M265.209,1080.029h-5.406l-3.457-13.478h4.542l1.36,7.152c0.147,0.772,0.221,1.545,0.221,1.968h0.221
			c0-0.423,0.055-1.195,0.202-1.968l1.361-7.152h4.413L265.209,1080.029z"/>
		<path fill="#FFFFFF" d="M269.865,1080.029v-13.478h9.102v3.678h-4.689v1.213h4.321v3.659h-4.321v1.25h4.836l0.184,3.678H269.865z"
			/>
		<path fill="#FFFFFF" d="M281.066,1080.029v-13.478h4.413v9.782h3.788l0.276,3.695H281.066z"/>
		<path fill="#FFFFFF" d="M295.705,1080.213c-3.935,0-5.958-2.114-5.958-6.876c0-4.836,2.06-6.969,5.958-6.969
			c3.769,0,5.957,1.931,5.957,6.876C301.662,1078.301,299.364,1080.213,295.705,1080.213z M295.705,1069.88
			c-1.14,0-1.342,0.202-1.342,3.42c0,3.162,0.184,3.401,1.342,3.401c1.158,0,1.342-0.239,1.342-3.401
			C297.047,1070.082,296.845,1069.88,295.705,1069.88z"/>
		<path fill="#FFFFFF" d="M308.746,1076.149h-1.048v3.88h-4.376v-13.478h5.461c3.254,0,5.093,1.342,5.093,4.651
			C313.875,1074.954,311.577,1076.149,308.746,1076.149z M308.451,1069.898h-0.754v2.905h0.754c0.607,0,0.901-0.166,0.901-1.601
			C309.352,1070.101,309.04,1069.898,308.451,1069.898z"/>
		<path fill="#FFFFFF" d="M326.805,1080.029c0,0-0.092-3.99-0.128-5.976c-0.019-0.46-0.019-0.92-0.019-1.36h-0.221
			c0,0.294-0.073,0.771-0.184,1.36l-1.159,5.976h-4.247l-1.306-5.976c-0.092-0.46-0.129-1.066-0.129-1.36h-0.22
			c0,0.533,0,0.809-0.019,1.36l-0.257,5.976h-3.861l0.938-13.478h5.259l1.6,6.767c0.129,0.552,0.166,1.306,0.166,1.839h0.221
			c0-0.533,0.037-1.287,0.147-1.839l1.379-6.767h5.369l0.846,13.478H326.805z"/>
		<path fill="#FFFFFF" d="M332.916,1080.029v-13.478h9.102v3.678h-4.689v1.213h4.321v3.659h-4.321v1.25h4.836l0.184,3.678H332.916z"
			/>
		<path fill="#FFFFFF" d="M351.104,1080.029l-2.316-5.093c-0.221-0.479-0.441-1.141-0.552-1.747h-0.221
			c0.037,0.552,0.074,1.231,0.074,1.747v5.093h-3.972v-13.478h4.505l1.857,4.082c0.221,0.423,0.423,1.066,0.57,1.747h0.221
			c-0.055-0.57-0.092-1.195-0.092-1.747v-4.082h3.99v13.478H351.104z"/>
		<path fill="#FFFFFF" d="M363.813,1070.229v9.8h-4.431v-9.8h-2.721v-3.678h9.911v3.678H363.813z"/>
	</g>
	<g enable-background="new    ">
		<path fill="#FFFFFF" d="M153.861,1121.412h-13.659v-33.711h13.613c7.772,0,12.095,2.116,12.095,8.646
			c0,4.139-2.023,6.347-5.151,7.267v0.506c4.001,0.874,5.887,3.403,5.887,7.404C166.646,1119.343,161.587,1121.412,153.861,1121.412
			z M153.631,1095.934h-2.759v5.013h2.713c0.965,0,1.563-0.689,1.563-2.667C155.149,1096.485,154.597,1095.934,153.631,1095.934z
			 M153.861,1108.029h-2.989v5.15h2.851c1.334,0,1.702-0.781,1.702-2.621C155.425,1108.673,154.965,1108.029,153.861,1108.029z"/>
		<path fill="#FFFFFF" d="M183.934,1121.872c-9.842,0-14.901-5.289-14.901-17.2c0-12.096,5.151-17.431,14.901-17.431
			c9.428,0,14.9,4.829,14.9,17.2C198.834,1117.089,193.085,1121.872,183.934,1121.872z M183.934,1096.025
			c-2.852,0-3.357,0.506-3.357,8.555c0,7.91,0.46,8.508,3.357,8.508c2.897,0,3.357-0.598,3.357-8.508
			C187.291,1096.531,186.785,1096.025,183.934,1096.025z"/>
		<path fill="#FFFFFF" d="M216.535,1121.872c-7.634,0-13.889-1.794-13.889-13.476v-20.695h11.083v21.248
			c0,2.667,0.23,3.311,3.035,3.311c2.713,0,3.036-0.644,3.036-3.311v-21.248h10.624v20.695
			C230.424,1118.101,226.055,1121.872,216.535,1121.872z"/>
		<path fill="#FFFFFF" d="M251.711,1096.899v24.513h-11.083v-24.513h-6.807v-9.198h24.789v9.198H251.711z"/>
		<path fill="#FFFFFF" d="M262.331,1121.412v-33.711h11.038v33.711H262.331z"/>
		<path fill="#FFFFFF" d="M297.786,1121.044v0.828c0,0.735,0.092,0.874,0.552,0.874c0.736,0,1.839-0.185,5.197-1.38l1.886,8.554
			c-4.369,1.334-6.668,1.702-8.508,1.702c-5.841,0-9.336-1.978-9.336-9.382v-1.012c-7.497-1.932-10.072-7.957-10.072-16.557
			c0-11.911,4.967-17.431,14.901-17.431c9.566,0,14.9,5.014,14.9,17.2C307.306,1113.962,303.995,1119.066,297.786,1121.044z
			 M292.405,1096.025c-2.897,0-3.357,0.552-3.357,8.555c0,7.496,0.23,8.554,3.357,8.554c3.127,0,3.357-1.058,3.357-8.554
			C295.762,1096.577,295.256,1096.025,292.405,1096.025z"/>
		<path fill="#FFFFFF" d="M325.006,1121.872c-7.634,0-13.889-1.794-13.889-13.476v-20.695h11.083v21.248
			c0,2.667,0.23,3.311,3.035,3.311c2.713,0,3.036-0.644,3.036-3.311v-21.248h10.624v20.695
			C338.896,1118.101,334.526,1121.872,325.006,1121.872z"/>
		<path fill="#FFFFFF" d="M344.455,1121.412v-33.711h22.765v9.198h-11.728v3.035H366.3v9.152h-10.808v3.127h12.095l0.46,9.198
			H344.455z"/>
	</g>
</g>
</svg>
